name D:\school\WTK\thesis\model\3dpredictsim\Results\MidTarsalJoint\Fal_s1_bCst_PF_Natali2010_ls150_MT_k800_d010_MTP_T5_ig23.mot
datacolumns 128
datarows 4
range 1.67377180 1.70724724
endheader
time	pelvis_tilt	pelvis_list	pelvis_rotation	pelvis_tx	pelvis_ty	pelvis_tz	hip_flexion_l	hip_adduction_l	hip_rotation_l	hip_flexion_r	hip_adduction_r	hip_rotation_r	knee_angle_l	knee_angle_r	ankle_angle_l	ankle_angle_r	subtalar_angle_l	subtalar_angle_r	mtj_angle_l	mtj_angle_r	mtp_angle_l	mtp_angle_r	lumbar_extension	lumbar_bending	lumbar_rotation	arm_flex_l	arm_add_l	arm_rot_l	arm_flex_r	arm_add_r	arm_rot_r	elbow_flex_l	elbow_flex_r	pro_sup_l	pro_sup_r	glut_med1_l/activation	glut_med2_l/activation	glut_med3_l/activation	glut_min1_l/activation	glut_min2_l/activation	glut_min3_l/activation	semimem_l/activation	semiten_l/activation	bifemlh_l/activation	bifemsh_l/activation	sar_l/activation	add_long_l/activation	add_brev_l/activation	add_mag1_l/activation	add_mag2_l/activation	add_mag3_l/activation	tfl_l/activation	pect_l/activation	grac_l/activation	glut_max1_l/activation	glut_max2_l/activation	glut_max3_l/activation	iliacus_l/activation	psoas_l/activation	quad_fem_l/activation	gem_l/activation	peri_l/activation	rect_fem_l/activation	vas_med_l/activation	vas_int_l/activation	vas_lat_l/activation	med_gas_l/activation	lat_gas_l/activation	soleus_l/activation	tib_post_l/activation	flex_dig_l/activation	flex_hal_l/activation	tib_ant_l/activation	per_brev_l/activation	per_long_l/activation	per_tert_l/activation	ext_dig_l/activation	ext_hal_l/activation	ercspn_l/activation	intobl_l/activation	extobl_l/activation	glut_med1_r/activation	glut_med2_r/activation	glut_med3_r/activation	glut_min1_r/activation	glut_min2_r/activation	glut_min3_r/activation	semimem_r/activation	semiten_r/activation	bifemlh_r/activation	bifemsh_r/activation	sar_r/activation	add_long_r/activation	add_brev_r/activation	add_mag1_r/activation	add_mag2_r/activation	add_mag3_r/activation	tfl_r/activation	pect_r/activation	grac_r/activation	glut_max1_r/activation	glut_max2_r/activation	glut_max3_r/activation	iliacus_r/activation	psoas_r/activation	quad_fem_r/activation	gem_r/activation	peri_r/activation	rect_fem_r/activation	vas_med_r/activation	vas_int_r/activation	vas_lat_r/activation	med_gas_r/activation	lat_gas_r/activation	soleus_r/activation	tib_post_r/activation	flex_dig_r/activation	flex_hal_r/activation	tib_ant_r/activation	per_brev_r/activation	per_long_r/activation	per_tert_r/activation	ext_dig_r/activation	ext_hal_r/activation	ercspn_r/activation	intobl_r/activation	extobl_r/activation	
          1.67377180	         -2.92895931	          2.14519620	         -5.12366277	          2.09221475	          0.91860627	          0.00175162	         29.07334685	          3.74803915	         -1.67256020	        -17.22583456	         -1.09722795	          6.16656915	        -11.88408815	         -7.61310385	          5.76804832	         -0.62063544	         -5.97589799	          7.78695590	          0.00463463	          1.82285550	         -0.87886091	         17.65688428	         -1.85661520	         -0.42810317	          1.98776516	         -4.94780853	        -13.45510872	          7.81077177	          5.50299202	        -13.45870986	         17.75040322	         15.35397829	         32.31733177	         86.51662706	         86.51662706	          0.09467722	          0.05512766	          0.05000024	          0.05929983	          0.05929875	          0.05000089	          0.06151098	          0.05000100	          0.20131177	          0.05000093	          0.05000228	          0.10754353	          0.16957989	          0.22353179	          0.17510749	          0.10897661	          0.05000039	          0.05001360	          0.06852527	          0.05001307	          0.05929886	          0.12460744	          0.05439845	          0.05000879	          0.49902729	          0.13937301	          0.05000437	          0.07032688	          0.16717738	          0.16746442	          0.14532039	          0.05000001	          0.05000005	          0.05000000	          0.05000036	          0.05000117	          0.05000101	          0.54896510	          0.26551107	          0.19954597	          0.32979952	          0.49490029	          0.19012063	          0.05568092	          0.10643862	          0.09891723	          0.27539194	          0.09289368	          0.07032245	          0.28042044	          0.17877202	          0.09891777	          0.05000248	          0.05000057	          0.05000054	          0.05754441	          0.09859010	          0.09266022	          0.05469726	          0.05000948	          0.05000641	          0.05000284	          0.28008107	          0.07609194	          0.05000825	          0.05000404	          0.05000280	          0.05000250	          0.35808754	          0.59452890	          0.05000115	          0.05002569	          0.05929881	          0.19088794	          0.05000481	          0.13057486	          0.13332324	          0.26767910	          0.36621212	          0.29565533	          0.27746772	          0.26253879	          0.34972376	          0.05000008	          0.05000086	          0.13059997	          0.05000036	          0.05000010	          0.05000039	          0.05000009	          0.07032674	          0.05000007	
          1.68493028	         -2.92428456	          2.24030242	         -5.40347616	          2.10909646	          0.91767208	          0.00156809	         28.39427334	          4.02737857	         -1.41530124	        -17.10513564	         -1.39619121	          5.93625850	        -12.29746531	         -9.50831070	          5.14141757	         -1.31708345	         -6.36386522	          8.66423741	         -0.09686524	          1.38997777	         -0.90317205	         18.94684390	         -1.65000942	         -0.63800776	          2.04437639	         -5.84761349	        -13.45697159	          7.55395363	          5.20715683	        -13.46474428	         18.00175709	         15.05095992	         33.47307127	         86.51662706	         86.51662706	          0.25086808	          0.05000014	          0.22345348	          0.05000105	          0.05000033	          0.17145692	          0.07594979	          0.05000143	          0.17540226	          0.05000028	          0.05000168	          0.09067995	          0.21936029	          0.18848025	          0.14764968	          0.12968389	          0.05000087	          0.05930848	          0.10598084	          0.05000033	          0.05000056	          0.10506825	          0.05929763	          0.05000280	          0.42077407	          0.11751785	          0.13827973	          0.05929883	          0.14096214	          0.14120418	          0.12253257	          0.05928091	          0.05929898	          0.05791958	          0.05929827	          0.05000304	          0.05000373	          0.46288121	          0.29193248	          0.16825507	          0.27808349	          0.52303042	          0.16030761	          0.05000007	          0.11418329	          0.08340587	          0.31976657	          0.07832691	          0.05929517	          0.23644763	          0.15073859	          0.08340638	          0.05000264	          0.05000114	          0.05000112	          0.05000026	          0.08313051	          0.13215330	          0.06162346	          0.05930001	          0.05929759	          0.05929831	          0.23616154	          0.08325417	          0.05001574	          0.05001356	          0.05001200	          0.05011539	          0.30193549	          0.56419101	          0.05201988	          0.05000194	          0.05000030	          0.16095456	          0.15157949	          0.11010135	          0.11241929	          0.22570391	          0.30878583	          0.24929315	          0.23396005	          0.22137034	          0.29488376	          0.05000004	          0.05000231	          0.15870991	          0.05000019	          0.05000006	          0.05000024	          0.05000189	          0.05929873	          0.05515931	
          1.69608876	         -2.91777397	          2.33616449	         -5.65304648	          2.12613779	          0.91681154	          0.00137564	         27.62006766	          4.26550019	         -1.14989219	        -16.89691731	         -1.69387572	          5.70617260	        -12.76472251	        -11.53062232	          4.60012919	         -2.18213853	         -6.74623217	          9.49946531	         -0.07389521	          0.92773181	         -0.88982717	         20.14984357	         -1.43843387	         -0.85645409	          2.09217422	         -6.75002051	        -13.46228369	          7.34490528	          4.85279822	        -13.47257819	         18.18599754	         14.79567295	         34.60986173	         86.51662706	         86.51662706	          0.31196148	          0.25996036	          0.31396918	          0.14313321	          0.20015831	          0.14457528	          0.06404008	          0.07229770	          0.14789720	          0.08024244	          0.05000326	          0.07646035	          0.18496211	          0.15892461	          0.12449695	          0.14111945	          0.05000098	          0.05000882	          0.08936248	          0.19625651	          0.15045692	          0.11737522	          0.05000015	          0.05000019	          0.35479192	          0.09909000	          0.11659628	          0.05000024	          0.11885795	          0.11906217	          0.10331832	          0.05000019	          0.05000055	          0.05000005	          0.05000010	          0.05000035	          0.05000042	          0.58307479	          0.34714252	          0.19084204	          0.48551016	          0.55110224	          0.25855169	          0.07288212	          0.10349679	          0.07032687	          0.29430811	          0.06604440	          0.05000015	          0.34929298	          0.12710117	          0.07032739	          0.05000386	          0.05000034	          0.05000026	          0.05000054	          0.07009661	          0.13297540	          0.05196049	          0.05000164	          0.05000201	          0.05000102	          0.22621154	          0.07020314	          0.05000104	          0.05000235	          0.05000143	          0.05000094	          0.25458875	          0.53024266	          0.05000017	          0.05000110	          0.05000067	          0.13913065	          0.12781191	          0.09283718	          0.13912781	          0.19031091	          0.26036463	          0.21020108	          0.19727260	          0.18665721	          0.24864282	          0.05000006	          0.08389304	          0.15320910	          0.05000037	          0.05000022	          0.05000037	          0.06266307	          0.05000003	          0.05000005	
          1.70724724	         -2.90981914	          2.42159805	         -5.86866713	          2.14315599	          0.91605793	          0.00115011	         26.85610683	          4.50158814	         -0.89694813	        -16.57488861	         -1.97683004	          5.48811640	        -13.26018565	        -13.70059667	          4.09758783	         -3.21227149	         -7.13583554	         10.28942115	         -0.08326067	          0.44205070	         -0.90299976	         21.16566466	         -1.23819292	         -1.07102981	          2.13210575	         -7.61368992	        -13.46596685	          7.18773784	          4.47402401	        -13.48623459	         18.32806346	         14.56274538	         35.70067037	         86.51662706	         86.51662706	          0.39420160	          0.34464840	          0.39725068	          0.16391217	          0.16877280	          0.21049481	          0.06854740	          0.08402298	          0.12470584	          0.06765969	          0.05000063	          0.06447077	          0.15596050	          0.19227568	          0.19419742	          0.16822846	          0.05000054	          0.05002963	          0.10479056	          0.24469232	          0.19087256	          0.16216705	          0.05000026	          0.05000023	          0.29915654	          0.08355181	          0.18137437	          0.05000015	          0.18372729	          0.18747913	          0.15787808	          0.05000008	          0.05000016	          0.05000003	          0.05000006	          0.05000051	          0.05000042	          0.64141170	          0.29270661	          0.16091583	          0.49649511	          0.58025311	          0.30954824	          0.08855551	          0.08726735	          0.05929882	          0.28256256	          0.05568795	          0.05000015	          0.29452081	          0.10717034	          0.05929934	          0.05000343	          0.05000043	          0.05000040	          0.05000024	          0.05910552	          0.15909045	          0.10739054	          0.05000822	          0.05000770	          0.06620899	          0.19074270	          0.05929183	          0.05000131	          0.05000345	          0.05000233	          0.05000188	          0.21466634	          0.48280940	          0.05000028	          0.05000090	          0.05000024	          0.11731339	          0.11731329	          0.11731334	          0.11731308	          0.16046795	          0.21953644	          0.17723911	          0.16633807	          0.15738742	          0.20965292	          0.07347151	          0.09303052	          0.15323311	          0.05000145	          0.12091405	          0.05000280	          0.08689368	          0.05000004	          0.05000008	
